<svg width="40" height="40" viewBox="0 0 40 40" fill="none" xmlns="http://www.w3.org/2000/svg">
<path fill-rule="evenodd" clip-rule="evenodd" d="M20.0014 13.7115C14.7536 8.70521 7.6354 15.7701 12.7821 20.9559C15.5266 23.7211 17.6367 25.7995 19.1155 27.1937L19.9325 27.964L19.9771 27.9201L20.0582 28L20.8755 27.2034C22.3196 25.796 24.4236 23.7237 27.1882 20.9857C32.3833 15.8407 25.2825 8.79074 20.0014 13.7115ZM19.9173 26.5753L19.8015 26.4661C18.335 25.0835 16.2343 23.0146 13.4919 20.2514C12.3758 19.1268 11.9809 17.9671 12.0007 16.9517C12.0208 15.9199 12.4705 14.9477 13.2002 14.2195C13.93 13.4911 14.914 13.0329 15.9654 13.0017C17.0007 12.971 18.1758 13.352 19.3112 14.435L19.9933 15.0858L20.6831 14.4431C22.9039 12.3738 25.3851 12.8462 26.8153 14.2801C27.5424 15.0091 27.9858 15.9767 27.9997 17.0001C28.0133 18.0071 27.6119 19.1586 26.4845 20.2752C23.7204 23.0127 21.6187 25.0827 20.1776 26.4873L20.0619 26.6L19.9771 26.5165L19.9173 26.5753Z" fill="#606164"/>
<path d="M20 39C9.50659 39 1 30.4934 1 20H-1C-1 31.598 8.40202 41 20 41V39ZM39 20C39 30.4934 30.4934 39 20 39V41C31.598 41 41 31.598 41 20H39ZM20 1C30.4934 1 39 9.50659 39 20H41C41 8.40202 31.598 -1 20 -1V1ZM20 -1C8.40202 -1 -1 8.40202 -1 20H1C1 9.50659 9.50659 1 20 1V-1Z" fill="#CACBCD"/>
</svg>
