<svg width="40" height="40" viewBox="0 0 40 40" fill="none" xmlns="http://www.w3.org/2000/svg">
<path fill-rule="evenodd" clip-rule="evenodd" d="M27.1882 20.9857C24.4236 23.7237 22.3196 25.796 20.8755 27.2034L20.0582 28L19.9771 27.9201L19.9325 27.964L19.1155 27.1937C17.6367 25.7995 15.5266 23.7211 12.7821 20.9559C7.6354 15.7701 14.7536 8.70521 20.0014 13.7115C25.2825 8.79074 32.3833 15.8407 27.1882 20.9857Z" fill="#F89F1C"/>
<path d="M20 39C9.50659 39 1 30.4934 1 20H-1C-1 31.598 8.40202 41 20 41V39ZM39 20C39 30.4934 30.4934 39 20 39V41C31.598 41 41 31.598 41 20H39ZM20 1C30.4934 1 39 9.50659 39 20H41C41 8.40202 31.598 -1 20 -1V1ZM20 -1C8.40202 -1 -1 8.40202 -1 20H1C1 9.50659 9.50659 1 20 1V-1Z" fill="#CACBCD"/>
</svg>
