<svg width="21" height="21" viewBox="0 0 21 21" fill="none" xmlns="http://www.w3.org/2000/svg">
<path fill-rule="evenodd" clip-rule="evenodd" d="M15.0592 9.04471H19.033C19.576 9.04471 20.0188 9.48329 20.0188 10.0243C20.0188 10.5691 19.5774 11.0039 19.033 11.0039H15.0592V12.9631H11.0387V7.57532H15.0592V9.04471ZM5.04044 20.0816V15.044H9.03937V20.0816H5.04044ZM0.0287343 1.98297C0.0287343 1.43818 0.46984 1.00338 1.01397 1.00338H2.98753V2.96256H1.01397C0.465315 2.96256 0.0287343 2.52398 0.0287343 1.98297ZM5.04044 5.01003V0H9.03937V5.01003H5.04044ZM0.0287343 10.0243C0.0287343 9.47952 0.467973 9.04471 1.0098 9.04471H9.03587V11.0039H1.0098C0.463167 11.0039 0.0287343 10.5653 0.0287343 10.0243ZM0 16.9812C0 16.4355 0.437969 16 0.97823 16H2.98753V17.9623H0.97823C0.440821 17.9623 0 17.523 0 16.9812ZM11.0387 17.9623V16H19.0151C19.5583 16 19.9901 16.4393 19.9901 16.9812C19.9901 17.5268 19.5535 17.9623 19.0151 17.9623H11.0387ZM11.0387 2.96256V1.00338H19.0407C19.5857 1.00338 20.0188 1.44196 20.0188 1.98297C20.0188 2.52776 19.5809 2.96256 19.0407 2.96256H11.0387Z" fill="#313336"/>
</svg>
